<svg width="238" height="238" viewBox="0 0 238 238" fill="none" xmlns="http://www.w3.org/2000/svg">
<circle cx="5.95" cy="5.95" r="5.95" fill="#252D35"/>
<circle cx="5.95" cy="96.39" r="5.95" fill="#252D35"/>
<circle cx="5.95" cy="28.56" r="5.95" fill="#252D35"/>
<circle cx="5.95" cy="119" r="5.95" fill="#252D35"/>
<circle cx="5.95" cy="186.83" r="5.95" fill="#252D35"/>
<circle cx="5.95" cy="51.17" r="5.95" fill="#252D35"/>
<circle cx="5.95" cy="141.61" r="5.95" fill="#252D35"/>
<circle cx="5.95" cy="209.44" r="5.95" fill="#252D35"/>
<circle cx="5.95" cy="73.78" r="5.95" fill="#252D35"/>
<circle cx="5.95" cy="164.22" r="5.95" fill="#252D35"/>
<circle cx="5.95" cy="232.05" r="5.95" fill="#252D35"/>
<circle cx="28.56" cy="5.95" r="5.95" fill="#252D35"/>
<circle cx="28.56" cy="96.39" r="5.95" fill="#252D35"/>
<circle cx="28.56" cy="28.56" r="5.95" fill="#252D35"/>
<circle cx="28.56" cy="119" r="5.95" fill="#252D35"/>
<circle cx="28.56" cy="186.83" r="5.95" fill="#252D35"/>
<circle cx="28.56" cy="51.17" r="5.95" fill="#252D35"/>
<circle cx="28.56" cy="141.61" r="5.95" fill="#252D35"/>
<circle cx="28.56" cy="209.44" r="5.95" fill="#252D35"/>
<circle cx="28.56" cy="73.78" r="5.95" fill="#252D35"/>
<circle cx="28.56" cy="164.22" r="5.95" fill="#252D35"/>
<circle cx="28.56" cy="232.05" r="5.95" fill="#252D35"/>
<circle cx="51.17" cy="5.95" r="5.95" fill="#252D35"/>
<circle cx="51.17" cy="96.39" r="5.95" fill="#252D35"/>
<circle cx="51.17" cy="28.56" r="5.95" fill="#252D35"/>
<circle cx="51.17" cy="119" r="5.95" fill="#252D35"/>
<circle cx="51.17" cy="186.83" r="5.95" fill="#252D35"/>
<circle cx="51.17" cy="51.17" r="5.95" fill="#252D35"/>
<circle cx="51.17" cy="141.61" r="5.95" fill="#252D35"/>
<circle cx="51.17" cy="209.44" r="5.95" fill="#252D35"/>
<circle cx="51.17" cy="73.78" r="5.95" fill="#252D35"/>
<circle cx="51.17" cy="164.22" r="5.95" fill="#252D35"/>
<circle cx="51.17" cy="232.05" r="5.95" fill="#252D35"/>
<circle cx="73.78" cy="5.95" r="5.95" fill="#252D35"/>
<circle cx="73.78" cy="96.39" r="5.95" fill="#252D35"/>
<circle cx="73.78" cy="28.56" r="5.95" fill="#252D35"/>
<circle cx="73.78" cy="119" r="5.95" fill="#252D35"/>
<circle cx="73.78" cy="186.83" r="5.95" fill="#252D35"/>
<circle cx="73.78" cy="51.17" r="5.95" fill="#252D35"/>
<circle cx="73.78" cy="141.61" r="5.95" fill="#252D35"/>
<circle cx="73.78" cy="209.44" r="5.95" fill="#252D35"/>
<circle cx="73.78" cy="73.78" r="5.95" fill="#252D35"/>
<circle cx="73.78" cy="164.22" r="5.95" fill="#252D35"/>
<circle cx="73.78" cy="232.05" r="5.95" fill="#252D35"/>
<circle cx="96.39" cy="5.95" r="5.95" fill="#252D35"/>
<circle cx="96.39" cy="96.39" r="5.95" fill="#252D35"/>
<circle cx="96.39" cy="28.56" r="5.95" fill="#252D35"/>
<circle cx="96.39" cy="119" r="5.95" fill="#252D35"/>
<circle cx="96.39" cy="186.83" r="5.95" fill="#252D35"/>
<circle cx="96.39" cy="51.17" r="5.95" fill="#252D35"/>
<circle cx="96.39" cy="141.61" r="5.95" fill="#252D35"/>
<circle cx="96.39" cy="209.44" r="5.95" fill="#252D35"/>
<circle cx="96.39" cy="73.78" r="5.95" fill="#252D35"/>
<circle cx="96.39" cy="164.22" r="5.95" fill="#252D35"/>
<circle cx="96.39" cy="232.05" r="5.95" fill="#252D35"/>
<circle cx="119" cy="5.95" r="5.95" fill="#252D35"/>
<circle cx="209.44" cy="5.95" r="5.95" fill="#252D35"/>
<circle cx="164.22" cy="5.95" r="5.95" fill="#252D35"/>
<circle cx="119" cy="96.39" r="5.95" fill="#252D35"/>
<circle cx="209.44" cy="96.39" r="5.95" fill="#252D35"/>
<circle cx="164.22" cy="96.39" r="5.95" fill="#252D35"/>
<circle cx="119" cy="28.56" r="5.95" fill="#252D35"/>
<circle cx="209.44" cy="28.56" r="5.95" fill="#252D35"/>
<circle cx="164.22" cy="28.56" r="5.95" fill="#252D35"/>
<circle cx="119" cy="119" r="5.95" fill="#252D35"/>
<circle cx="119" cy="186.83" r="5.95" fill="#252D35"/>
<circle cx="209.44" cy="119" r="5.95" fill="#252D35"/>
<circle cx="209.44" cy="186.83" r="5.95" fill="#252D35"/>
<circle cx="164.22" cy="119" r="5.95" fill="#252D35"/>
<circle cx="164.22" cy="186.83" r="5.95" fill="#252D35"/>
<circle cx="119" cy="51.17" r="5.95" fill="#252D35"/>
<circle cx="209.44" cy="51.17" r="5.95" fill="#252D35"/>
<circle cx="164.22" cy="51.17" r="5.95" fill="#252D35"/>
<circle cx="119" cy="141.61" r="5.95" fill="#252D35"/>
<circle cx="119" cy="209.44" r="5.95" fill="#252D35"/>
<circle cx="209.44" cy="141.61" r="5.95" fill="#252D35"/>
<circle cx="209.44" cy="209.44" r="5.95" fill="#252D35"/>
<circle cx="164.22" cy="141.61" r="5.95" fill="#252D35"/>
<circle cx="164.22" cy="209.44" r="5.95" fill="#252D35"/>
<circle cx="119" cy="73.78" r="5.95" fill="#252D35"/>
<circle cx="209.44" cy="73.78" r="5.95" fill="#252D35"/>
<circle cx="164.22" cy="73.78" r="5.95" fill="#252D35"/>
<circle cx="119" cy="164.22" r="5.95" fill="#252D35"/>
<circle cx="119" cy="232.05" r="5.95" fill="#252D35"/>
<circle cx="209.44" cy="164.22" r="5.95" fill="#252D35"/>
<circle cx="209.44" cy="232.05" r="5.95" fill="#252D35"/>
<circle cx="164.22" cy="164.22" r="5.95" fill="#252D35"/>
<circle cx="164.22" cy="232.05" r="5.95" fill="#252D35"/>
<circle cx="141.61" cy="5.95" r="5.95" fill="#252D35"/>
<circle cx="232.05" cy="5.95" r="5.95" fill="#252D35"/>
<circle cx="186.83" cy="5.95" r="5.95" fill="#252D35"/>
<circle cx="141.61" cy="96.39" r="5.95" fill="#252D35"/>
<circle cx="232.05" cy="96.39" r="5.95" fill="#252D35"/>
<circle cx="186.83" cy="96.39" r="5.95" fill="#252D35"/>
<circle cx="141.61" cy="28.56" r="5.95" fill="#252D35"/>
<circle cx="232.05" cy="28.56" r="5.95" fill="#252D35"/>
<circle cx="186.83" cy="28.56" r="5.95" fill="#252D35"/>
<circle cx="141.61" cy="119" r="5.95" fill="#252D35"/>
<circle cx="141.61" cy="186.83" r="5.95" fill="#252D35"/>
<circle cx="232.05" cy="119" r="5.95" fill="#252D35"/>
<circle cx="232.05" cy="186.83" r="5.95" fill="#252D35"/>
<circle cx="186.83" cy="119" r="5.95" fill="#252D35"/>
<circle cx="186.83" cy="186.83" r="5.95" fill="#252D35"/>
<circle cx="141.61" cy="51.17" r="5.95" fill="#252D35"/>
<circle cx="232.05" cy="51.17" r="5.95" fill="#252D35"/>
<circle cx="186.83" cy="51.17" r="5.95" fill="#252D35"/>
<circle cx="141.61" cy="141.61" r="5.95" fill="#252D35"/>
<circle cx="141.61" cy="209.44" r="5.95" fill="#252D35"/>
<circle cx="232.05" cy="141.61" r="5.95" fill="#252D35"/>
<circle cx="232.05" cy="209.44" r="5.95" fill="#252D35"/>
<circle cx="186.83" cy="141.61" r="5.95" fill="#252D35"/>
<circle cx="186.83" cy="209.44" r="5.95" fill="#252D35"/>
<circle cx="141.61" cy="73.78" r="5.95" fill="#252D35"/>
<circle cx="232.05" cy="73.78" r="5.95" fill="#252D35"/>
<circle cx="186.83" cy="73.78" r="5.95" fill="#252D35"/>
<circle cx="141.61" cy="164.22" r="5.95" fill="#252D35"/>
<circle cx="141.61" cy="232.05" r="5.95" fill="#252D35"/>
<circle cx="232.05" cy="164.22" r="5.95" fill="#252D35"/>
<circle cx="232.05" cy="232.05" r="5.95" fill="#252D35"/>
<circle cx="186.83" cy="164.22" r="5.95" fill="#252D35"/>
<circle cx="186.83" cy="232.05" r="5.95" fill="#252D35"/>
</svg>
